<?xml version="1.0" standalone="no"?>
<!DOCTYPE svg PUBLIC "-//W3C//DTD SVG 20010904//EN"
 "http://www.w3.org/TR/2001/REC-SVG-20010904/DTD/svg10.dtd">
<svg version="1.0" xmlns="http://www.w3.org/2000/svg"
 width="500.000000pt" height="500.000000pt" viewBox="0 0 500.000000 500.000000"
 preserveAspectRatio="xMidYMid meet">
<metadata>
Created by potrace 1.14, written by Peter Selinger 2001-2017
</metadata>
<g transform="translate(0.000000,500.000000) scale(0.100000,-0.100000)"
fill="#000000" stroke="none">
<path d="M130 2465 l0 -475 2370 0 2370 0 0 475 0 475 -2370 0 -2370 0 0 -475z
m4700 0 l0 -445 -2335 0 -2335 0 0 445 0 445 2335 0 2335 0 0 -445z"/>
<path d="M250 2465 l0 -385 1125 0 1125 0 0 385 0 385 -1125 0 -1125 0 0 -385z
m463 151 c46 -19 69 -49 74 -99 6 -50 -14 -98 -51 -122 -13 -9 -56 -19 -95
-22 l-71 -6 0 132 0 131 55 0 c31 0 70 -6 88 -14z m197 -116 c0 -80 -4 -130
-10 -130 -6 0 -10 50 -10 130 0 80 4 130 10 130 6 0 10 -50 10 -130z m297 110
c36 -21 62 -60 41 -60 -6 0 -24 11 -38 25 -82 78 -199 1 -169 -110 12 -44 48
-68 101 -68 34 0 47 6 70 32 15 17 28 36 28 41 0 6 -25 10 -55 10 -42 0 -55 3
-55 15 0 12 14 15 70 15 79 0 80 -2 51 -67 -53 -115 -224 -87 -238 39 -13 114
97 187 194 128z m183 -110 c0 -109 -2 -130 -15 -130 -13 0 -15 21 -15 130 0
109 2 130 15 130 13 0 15 -21 15 -130z m290 115 c0 -11 -12 -15 -45 -15 l-45
0 0 -115 c0 -96 -3 -115 -15 -115 -12 0 -15 19 -15 115 l0 115 -45 0 c-33 0
-45 4 -45 15 0 12 18 15 105 15 87 0 105 -3 105 -15z m224 -83 c22 -53 46
-112 53 -129 11 -28 11 -33 -1 -33 -8 0 -19 14 -25 30 -10 29 -11 30 -80 30
-68 0 -69 -1 -80 -30 -9 -27 -31 -42 -31 -21 0 5 19 53 41 107 23 55 45 109
50 122 16 41 34 22 73 -76z m176 -17 l0 -115 60 0 c47 0 60 -3 60 -15 0 -12
-15 -15 -75 -15 l-75 0 0 130 c0 109 2 130 15 130 12 0 15 -19 15 -115z"/>
<path d="M600 2500 l0 -100 45 0 c71 0 99 19 118 82 9 28 -12 85 -38 102 -14
9 -45 16 -75 16 l-50 0 0 -100z"/>
<path d="M1832 2548 c-40 -91 -40 -88 22 -88 l55 0 -20 48 c-12 26 -24 56 -29
67 -6 17 -10 13 -28 -27z"/>
<path d="M2690 2627 c-83 -29 -107 -150 -42 -208 59 -53 133 -50 189 6 29 29
33 40 33 83 0 62 -32 106 -88 122 -45 12 -48 12 -92 -3z m95 -91 c33 -50 -20
-104 -70 -72 -27 18 -34 63 -13 84 21 21 66 14 83 -12z"/>
<path d="M4230 2627 c-83 -29 -107 -150 -42 -208 59 -53 133 -50 189 6 29 29
33 40 33 83 0 62 -32 106 -88 122 -45 12 -48 12 -92 -3z m95 -91 c33 -50 -20
-104 -70 -72 -27 18 -34 63 -13 84 21 21 66 14 83 -12z"/>
<path d="M2902 2535 c3 -88 5 -97 31 -122 23 -23 36 -28 77 -28 41 0 54 5 77
28 26 25 28 34 31 122 l4 95 -41 0 -41 0 0 -79 c0 -58 -4 -82 -15 -91 -12 -10
-18 -10 -30 0 -11 9 -15 33 -15 91 l0 79 -41 0 -41 0 4 -95z"/>
<path d="M3140 2595 c0 -34 1 -35 40 -35 l40 0 0 -85 0 -85 35 0 35 0 0 85 0
85 35 0 c33 0 35 2 35 35 l0 35 -110 0 -110 0 0 -35z"/>
<path d="M3390 2510 l0 -120 90 0 90 0 0 30 c0 29 -1 30 -50 30 -38 0 -50 4
-50 15 0 11 11 15 40 15 38 0 40 2 40 30 0 28 -2 30 -40 30 -29 0 -40 4 -40
15 0 11 12 15 45 15 43 0 45 1 45 30 l0 30 -85 0 -85 0 0 -120z"/>
<path d="M3600 2510 l0 -120 40 0 c38 0 40 2 40 30 0 17 4 30 9 30 5 0 14 -13
21 -30 11 -27 17 -30 56 -30 24 0 44 2 44 5 0 2 -9 19 -20 37 -17 29 -18 34
-4 49 8 9 17 33 21 52 5 31 1 40 -25 67 -29 28 -35 30 -106 30 l-76 0 0 -120z
m128 33 c3 -20 -1 -23 -27 -23 -27 0 -31 4 -31 26 0 22 4 25 28 22 19 -2 28
-9 30 -25z"/>
<path d="M3920 2510 l0 -120 83 0 c114 0 154 32 121 95 -10 19 -11 32 -4 45
16 29 12 49 -15 75 -22 22 -32 25 -105 25 l-80 0 0 -120z m130 45 c0 -9 -9
-15 -25 -15 -16 0 -25 6 -25 15 0 9 9 15 25 15 16 0 25 -6 25 -15z m5 -86 c9
-13 6 -16 -28 -24 -23 -6 -27 -4 -27 14 0 16 6 21 24 21 14 0 28 -5 31 -11z"/>
<path d="M4436 2618 c4 -7 20 -32 36 -55 15 -23 28 -45 28 -50 0 -5 -16 -32
-35 -60 -19 -29 -35 -55 -35 -58 0 -3 19 -5 43 -5 37 0 45 4 61 31 l19 31 19
-31 c18 -27 25 -31 65 -31 l45 0 -17 28 c-10 15 -28 42 -41 61 l-23 34 35 51
c19 28 34 54 34 58 0 5 -18 8 -39 8 -33 0 -42 -5 -59 -31 l-19 -31 -19 31
c-16 27 -24 31 -62 31 -32 0 -41 -3 -36 -12z"/>
</g>
</svg>
